<?xml version="1.0" encoding="UTF-8"?>
<!DOCTYPE svg PUBLIC "-//W3C//DTD SVG 1.1//EN" "http://www.w3.org/Graphics/SVG/1.1/DTD/svg11.dtd">
<!-- Creator: CorelDRAW X7 -->
<svg xmlns="http://www.w3.org/2000/svg" xml:space="preserve" width="1240px" height="827px" version="1.1" style="shape-rendering:geometricPrecision; text-rendering:geometricPrecision; image-rendering:optimizeQuality; fill-rule:evenodd; clip-rule:evenodd"
viewBox="0 0 12400 8267"
 xmlns:xlink="http://www.w3.org/1999/xlink">
 <defs>
  <style type="text/css">
   <![CDATA[
    .fil0 {fill:none}
    .fil1 {fill:#151515}
    .fil2 {fill:#151515;fill-rule:nonzero}
   ]]>
  </style>
 </defs>
 <g id="Warstwa_x0020_1">
  <metadata id="CorelCorpID_0Corel-Layer"/>
  <rect class="fil0" width="12400" height="8267"/>
  <g id="_2975863423632">
   <path class="fil1" d="M4683 4472c1639,-65 2211,-128 3705,-229 166,-18 1108,1017 2179,677 347,-245 211,-643 -131,-834 -609,-338 -1399,-1 -2056,33 -1071,-1345 -3654,-2432 -3971,144 -3898,-3 -2679,-1373 -1390,-2510 364,-321 709,-572 1003,-778 0,0 -210,96 -494,306 -1212,899 -3967,3265 879,3189 176,1732 2041,1364 2367,8 -201,500 -1733,1608 -2091,-6zm-8 -204c173,-2327 2440,-1540 3596,-137 -2034,190 -2051,87 -3596,137zm3864 -59c402,-115 1550,-153 1878,65 143,96 239,296 101,440 -323,339 -1630,-235 -1979,-505zm-2808 -2354c25,-9 12,-8 26,4 -10,9 14,8 -13,7 -20,0 -2,3 -13,-11zm73 76c-12,32 -12,16 -23,4 0,0 -5,-9 23,-4zm-187 26c11,-27 10,-24 27,-6 -23,34 -27,6 -27,6zm5 -59c3,-18 -9,-10 10,-20 21,-10 11,2 16,5 -7,23 -6,18 -26,15zm-709 -746c-40,-28 -98,-16 -161,-4 24,-28 54,-55 104,-57 32,9 49,25 57,61zm759 785c13,-25 13,-21 28,-6 -22,32 -24,8 -28,6zm-1629 489c-4,11 -4,-1 -3,16 1,9 4,21 6,30 -71,2 -113,-23 -143,-68l78 42 -21 -84c16,11 26,24 38,35l45 29zm719 -8c35,-32 93,-47 141,-69 -10,39 -53,66 -93,75 -38,8 -42,-3 -48,-6zm-515 -36l-2 5 -41 34 -20 -18 47 -48c6,17 5,12 16,27zm1781 -678c18,43 -102,122 -137,-27 13,25 55,79 104,43 21,-15 -2,-4 17,-14 26,-15 6,-5 16,-2zm-1133 -434l6 10c33,-2 36,-26 -2,-28 -4,11 -4,3 -4,18zm-156 76l189 -150c-5,58 -5,21 29,63 21,24 28,52 23,82 13,15 7,6 15,13l-256 -8zm-418 939c-22,32 -36,71 -74,97 -11,-15 -10,-10 -16,-27 6,-17 13,-22 22,-38 102,-176 -16,-610 -77,-778 -37,-103 -163,-280 -157,-373 7,-124 199,-131 242,53 -23,-18 -61,-31 -92,7 -7,32 30,91 43,122 52,127 99,290 125,424 35,175 63,387 -16,513zm-361 77l21 84 -78 -42c-74,-25 -208,-342 -332,-450 -40,-35 -125,-63 -175,-10 -3,42 32,44 59,72 -271,-26 -137,-364 175,-143 104,73 169,239 247,370 27,44 63,83 83,119zm1014 -1275c-198,-164 -420,-205 -678,-171 -115,15 -196,47 -300,71 97,-76 440,-136 574,-128 96,6 156,21 236,62 39,21 58,35 91,69 24,25 60,56 77,97zm1054 617c-10,-3 10,-13 -16,2 -19,10 4,-1 -17,14 -49,36 -91,-18 -104,-43 35,149 155,70 137,27zm-1406 884c-7,-27 0,-15 0,-24 -2,-24 13,30 -2,-15 -1,-1 -9,-12 -10,-14 9,-28 86,-73 93,-86l59 -31c6,3 10,14 48,6 40,-9 83,-36 93,-75l11 1 16 30 56 -2 -13 -51 17 -3c85,-19 168,-34 254,-44 230,-26 390,48 616,-208 -34,17 -68,45 -110,67 -132,67 -295,88 -439,78 -60,-5 -224,-28 -219,-90 5,-56 77,-22 107,-13 237,69 415,82 662,-58 39,-21 175,-192 77,-262 -51,-37 -105,-79 -110,-148 32,-36 33,-28 63,-55l-454 -143c-199,-68 -171,-74 -282,-201 -28,-33 -57,-55 -88,-86 38,8 1,-1 20,7l71 46c26,23 43,36 69,64 110,119 537,205 727,253 56,14 144,25 164,88 36,113 -78,260 -83,274 -37,97 -71,169 -148,242 -237,226 -441,149 -641,202 -172,45 -314,152 -424,284 -13,16 -15,20 -29,38 -11,15 -20,21 -30,35 -14,21 -83,145 -104,163 8,-51 35,-101 57,-144 16,-32 11,-31 34,-64 14,-19 24,-37 36,-57 61,-102 168,-164 204,-200 -178,34 -313,167 -368,196zm-12 134c-18,19 -30,68 -32,98 -11,145 77,254 145,357 -176,-15 -392,-224 -113,-455zm12 -134l-138 166c-36,49 -68,122 -98,186 5,-117 126,-325 224,-405 1,2 9,13 10,14 15,45 0,-9 2,15 0,9 -7,-3 0,24zm-438 -185l20 18c-42,25 -104,56 -158,51 -2,-9 -5,-21 -6,-30 -1,-17 -1,-5 3,-16 97,19 63,3 141,-23zm730 -53l59 -23 13 51 -56 2 -16 -30zm-13 -1070l-6 -10c0,-15 0,-7 4,-18 38,2 35,26 2,28zm804 706c0,-2 4,2 6,3 -10,11 1,33 -27,6 8,-8 1,-6 15,-10 1,0 5,3 6,1zm33 -18c7,-18 -5,-20 22,-12 -18,23 16,-4 -6,13 -21,15 -7,1 -16,-1zm2 -65c26,-8 -5,-3 10,3 -9,10 1,31 -23,5 7,-7 1,-5 13,-8zm3159 1148c-24,-59 -51,-123 -77,-180 -29,-94 -20,-136 -38,-227 -19,-96 -188,-203 -255,-240 -230,-126 -283,-98 -417,-135 -197,-55 -38,-273 -9,-348 -77,38 -474,432 -536,491 -93,110 -309,481 -444,534 -154,41 -334,-68 -366,-66 5,-30 316,42 396,-43 113,-141 326,-453 426,-543l302 -265c41,-34 282,-246 323,-230 75,30 56,237 92,275 21,22 244,-147 370,-147 6,54 -99,357 -128,386 11,-58 90,-267 74,-333 -58,-4 -277,142 -301,175 56,210 424,213 505,482 31,101 16,178 60,283 50,119 116,153 108,220 -17,143 -215,286 -349,308 -115,19 -196,3 -283,-25 -56,77 -154,263 -184,298 17,-68 118,-268 157,-300 -20,-23 -78,-45 -117,-71 -129,91 -160,139 -279,263 38,-87 157,-219 257,-275 -11,-27 -2,-9 -23,-35 70,24 38,18 101,-22 29,-18 61,-40 94,-53l-14 16c-1,1 -3,3 -5,4l-45 35c-27,19 -45,29 -62,54l110 50 61 -67c15,-15 3,-6 23,-18 -16,38 -36,62 -56,92 89,41 209,41 306,1 47,-19 140,-79 179,-114 19,-17 24,-26 41,-43 -6,-84 -83,-111 -79,-176 35,-15 44,-9 82,-11zm-516 -350c69,-16 126,-27 199,-23 112,5 79,22 44,84 -84,150 -189,-18 -243,-61zm-22 451c-37,28 -82,44 -127,71 -156,92 -255,199 -332,243 19,-42 16,-20 47,-54 99,-111 264,-219 412,-260z"/>
   <path class="fil2" d="M7210 5610c0,-38 -6,-66 -20,-83 -14,-19 -35,-28 -63,-28 -30,0 -53,12 -69,34 -16,22 -24,53 -24,94l0 211c0,49 8,87 25,111 16,25 40,37 73,37 28,0 48,-8 60,-26 12,-17 18,-46 18,-86l0 -264zm173 -51l0 353c0,70 -16,125 -48,163 -32,37 -78,56 -137,56 -29,0 -58,-6 -86,-21 -29,-14 -55,-34 -78,-61l0 250 66 0 0 138 -302 0 0 -138 65 0 0 -800 -65 0 0 -136 219 0 0 92c26,-36 55,-63 85,-81 31,-18 64,-27 100,-27 58,0 103,19 134,56 32,37 47,89 47,156z"/>
   <path id="1" class="fil2" d="M7649 5660l185 0 0 -41c0,-42 -8,-74 -23,-98 -16,-24 -38,-35 -65,-35 -33,0 -58,12 -73,36 -16,25 -24,64 -24,118l0 20zm346 223c-6,80 -31,141 -75,184 -44,43 -106,64 -184,64 -85,0 -150,-26 -194,-80 -43,-54 -65,-132 -65,-236l0 -137c0,-103 23,-183 69,-242 46,-59 108,-89 186,-89 85,0 151,28 196,84 46,55 68,135 68,240l0 105 -347 0 0 49c0,56 8,97 24,124 16,26 40,39 73,39 27,0 49,-9 64,-26 16,-18 25,-44 29,-79l156 0z"/>
   <path id="2" class="fil2" d="M8392 6126c-14,1 -28,2 -42,3 -14,0 -31,1 -53,1 -59,0 -99,-12 -120,-36 -21,-23 -32,-71 -32,-142l0 -456 -66 0 0 -133 66 0 0 -273 173 0 0 273 72 0 0 133 -72 0 0 416c0,32 3,52 9,59 6,7 22,10 47,10l18 0 0 145z"/>
   <polygon id="3" class="fil2" points="8482,5793 8482,5650 8907,5650 8907,5793 "/>
   <path id="4" class="fil2" d="M8992 5363l238 0 0 824c0,100 -19,170 -58,211 -38,41 -105,62 -200,63l0 -150c34,-4 57,-13 68,-29 12,-15 17,-51 17,-108l0 -673 -65 0 0 -138zm33 -318l205 0 0 183 -205 0 0 -183z"/>
   <path id="5" class="fil2" d="M9553 5852c0,46 6,80 19,101 13,21 34,32 62,32 30,0 55,-14 73,-40 18,-26 27,-63 27,-109l0 -203c0,-47 -8,-82 -24,-104 -16,-23 -40,-35 -71,-35 -30,0 -52,11 -65,33 -14,22 -21,56 -21,103l0 222zm195 180c-27,34 -54,59 -82,75 -29,16 -60,24 -93,24 -62,0 -110,-25 -143,-76 -33,-51 -50,-124 -50,-221l0 -224c0,-81 18,-145 54,-192 35,-46 85,-69 148,-69 40,0 73,8 101,25 28,16 53,43 75,79l0 -90 215 0 0 138 -66 0 0 479 66 0 0 138 -225 0 0 -86z"/>
   <polygon id="6" class="fil2" points="10047,6118 10047,5976 10423,5491 10200,5491 10200,5601 10062,5601 10062,5363 10610,5363 10610,5506 10237,5990 10480,5990 10480,5862 10610,5862 10610,6118 "/>
   <polygon id="7" class="fil2" points="10686,6118 10686,5976 11062,5491 10839,5491 10839,5601 10701,5601 10701,5363 11249,5363 11249,5506 10876,5990 11119,5990 11119,5862 11249,5862 11249,6118 "/>
   <path class="fil2" d="M1393 6757c72,0 132,26 180,79 43,47 65,104 65,169 0,65 -23,122 -69,171 -45,48 -104,73 -176,73 -72,0 -131,-25 -176,-73 -46,-49 -69,-106 -69,-171 0,-65 22,-121 65,-169 47,-52 108,-79 180,-79zm0 60c-50,0 -93,18 -129,55 -36,37 -54,81 -54,134 0,33 8,65 24,94 17,29 39,52 67,68 28,16 59,24 92,24 33,0 64,-8 92,-24 28,-16 50,-39 66,-68 17,-29 25,-61 25,-94 0,-53 -18,-97 -54,-134 -36,-37 -79,-55 -129,-55z"/>
   <path id="1" class="fil2" d="M1750 6769l60 0 0 86c24,-33 51,-57 82,-73 31,-16 66,-25 104,-25 66,0 123,24 171,72 47,48 71,106 71,173 0,69 -24,127 -71,175 -47,48 -103,72 -170,72 -37,0 -71,-8 -102,-23 -32,-16 -60,-39 -85,-70l0 253 -60 0 0 -640zm241 47c-52,0 -96,18 -131,54 -36,36 -54,82 -54,136 0,35 8,67 24,95 16,28 39,51 68,67 30,17 61,25 94,25 32,0 63,-8 91,-25 29,-16 52,-40 68,-70 17,-30 26,-61 26,-94 0,-33 -9,-65 -25,-95 -17,-29 -40,-52 -68,-69 -28,-16 -59,-24 -93,-24z"/>
   <path id="2" class="fil2" d="M2372 6577c13,0 25,4 35,14 9,10 14,22 14,36 0,13 -5,25 -14,35 -10,9 -22,14 -35,14 -14,0 -25,-5 -35,-14 -10,-10 -15,-22 -15,-35 0,-14 5,-26 15,-36 10,-10 21,-14 35,-14zm-30 192l60 0 0 468 -60 0 0 -468z"/>
   <path id="3" class="fil2" d="M2923 7082l51 27c-17,32 -36,59 -58,79 -22,20 -47,35 -74,45 -27,11 -58,16 -93,16 -77,0 -137,-25 -180,-75 -43,-50 -65,-107 -65,-169 0,-60 19,-113 55,-159 47,-59 109,-89 187,-89 80,0 144,31 192,91 34,43 51,96 52,160l-424 0c1,54 19,99 53,133 33,35 75,52 125,52 24,0 47,-4 70,-12 22,-8 42,-19 57,-33 16,-14 34,-35 52,-66zm1 -126c-9,-32 -20,-58 -36,-77 -15,-19 -36,-35 -61,-47 -26,-11 -52,-17 -80,-17 -47,0 -86,14 -120,44 -24,22 -42,54 -55,97l352 0z"/>
   <polygon id="4" class="fil2" points="3101,6588 3161,6588 3161,6958 3380,6769 3467,6769 3209,6992 3482,7237 3396,7237 3161,7026 3161,7237 3101,7237 "/>
   <path id="5" class="fil2" d="M4010 6769l0 468 -60 0 0 -80c-25,31 -53,54 -85,69 -31,15 -65,23 -103,23 -66,0 -122,-24 -169,-72 -47,-48 -71,-106 -71,-175 0,-67 24,-125 72,-173 47,-48 104,-72 170,-72 39,0 73,9 104,25 32,16 59,40 82,73l0 -86 60 0zm-241 47c-34,0 -65,8 -93,24 -28,17 -51,40 -67,69 -17,30 -26,62 -26,95 0,33 9,64 26,94 17,30 39,54 68,70 28,17 59,25 92,25 32,0 64,-8 93,-25 30,-16 52,-39 68,-67 16,-28 24,-60 24,-95 0,-54 -18,-100 -54,-136 -35,-36 -79,-54 -131,-54z"/>
   <path id="6" class="fil2" d="M4391 6769l60 0 0 84c24,-32 51,-56 80,-72 29,-16 61,-24 96,-24 35,0 66,9 93,27 28,18 48,42 61,72 13,30 19,77 19,141l0 240 -60 0 0 -223c0,-54 -2,-90 -7,-108 -7,-31 -21,-54 -41,-70 -19,-15 -45,-23 -77,-23 -37,0 -70,12 -98,36 -29,24 -49,54 -58,90 -5,23 -8,65 -8,127l0 171 -60 0 0 -468z"/>
   <path id="7" class="fil2" d="M5396 6769l0 468 -60 0 0 -80c-26,31 -54,54 -85,69 -32,15 -66,23 -103,23 -67,0 -123,-24 -170,-72 -47,-48 -70,-106 -70,-175 0,-67 23,-125 71,-173 47,-48 104,-72 170,-72 39,0 73,9 105,25 31,16 58,40 82,73l0 -86 60 0zm-242 47c-33,0 -64,8 -93,24 -28,17 -51,40 -67,69 -17,30 -26,62 -26,95 0,33 9,64 26,94 17,30 39,54 68,70 28,17 59,25 92,25 32,0 64,-8 93,-25 30,-16 52,-39 68,-67 16,-28 24,-60 24,-95 0,-54 -18,-100 -53,-136 -36,-36 -80,-54 -132,-54z"/>
   <path id="8" class="fil2" d="M5999 6588l0 649 -60 0 0 -80c-25,31 -53,54 -85,69 -31,15 -66,23 -103,23 -66,0 -123,-24 -169,-72 -47,-48 -71,-106 -71,-175 0,-67 24,-125 71,-173 47,-48 104,-72 171,-72 38,0 73,9 104,25 31,16 59,41 82,74l0 -268 60 0zm-241 228c-34,0 -65,8 -93,24 -28,17 -51,40 -68,69 -16,30 -25,62 -25,95 0,33 9,64 25,94 17,30 40,54 69,70 28,17 59,25 91,25 33,0 64,-8 94,-25 29,-16 52,-39 68,-67 16,-28 24,-60 24,-95 0,-54 -18,-100 -54,-136 -35,-36 -79,-54 -131,-54z"/>
   <polygon id="9" class="fil2" points="6341,6769 6686,6769 6421,7184 6678,7184 6678,7237 6317,7237 6583,6821 6341,6821 "/>
   <polygon id="10" class="fil2" points="6692,6769 6754,6769 6897,7109 7046,6769 7057,6769 7207,7109 7353,6769 7415,6769 7213,7237 7201,7237 7052,6902 6903,7237 6890,7237 "/>
   <path id="11" class="fil2" d="M7509 6577c14,0 26,4 35,14 10,10 15,22 15,36 0,13 -5,25 -15,35 -9,9 -21,14 -35,14 -13,0 -25,-5 -34,-14 -10,-10 -15,-22 -15,-35 0,-14 5,-26 15,-36 9,-10 21,-14 34,-14zm-30 192l60 0 0 468 -60 0 0 -468z"/>
   <path id="12" class="fil2" d="M8060 7082l51 27c-16,32 -36,59 -58,79 -22,20 -46,35 -73,45 -28,11 -59,16 -93,16 -77,0 -137,-25 -180,-75 -43,-50 -65,-107 -65,-169 0,-60 18,-113 55,-159 46,-59 108,-89 186,-89 80,0 145,31 192,91 34,43 52,96 52,160l-423 0c1,54 18,99 52,133 34,35 76,52 125,52 24,0 48,-4 70,-12 23,-8 42,-19 58,-33 16,-14 33,-35 51,-66zm1 -126c-8,-32 -20,-58 -35,-77 -16,-19 -36,-35 -62,-47 -25,-11 -52,-17 -80,-17 -46,0 -86,14 -119,44 -25,22 -43,54 -55,97l351 0z"/>
   <path id="13" class="fil2" d="M8215 6769l62 0 0 68c18,-27 38,-47 58,-60 21,-13 42,-20 64,-20 17,0 35,6 54,16l-32 51c-12,-6 -23,-8 -32,-8 -20,0 -39,8 -58,24 -19,17 -33,43 -43,77 -7,27 -11,81 -11,162l0 158 -62 0 0 -468z"/>
   <polygon id="14" class="fil2" points="8465,6769 8810,6769 8544,7184 8801,7184 8801,7237 8440,7237 8707,6821 8465,6821 "/>
   <path id="15" class="fil2" d="M9274 7082l51 27c-17,32 -36,59 -58,79 -22,20 -46,35 -74,45 -27,11 -58,16 -93,16 -76,0 -136,-25 -180,-75 -43,-50 -64,-107 -64,-169 0,-60 18,-113 55,-159 46,-59 108,-89 186,-89 80,0 144,31 192,91 34,43 51,96 52,160l-424 0c2,54 19,99 53,133 34,35 75,52 125,52 24,0 47,-4 70,-12 23,-8 42,-19 58,-33 16,-14 33,-35 51,-66zm1 -126c-8,-32 -20,-58 -36,-77 -15,-19 -36,-35 -61,-47 -26,-11 -52,-17 -80,-17 -47,0 -86,14 -119,44 -25,22 -43,54 -56,97l352 0zm-167 281l48 0c-35,30 -52,58 -52,84 0,13 5,24 16,33 10,9 26,14 46,14 9,0 19,-1 30,-2l-4 36c-12,2 -24,4 -37,4 -32,0 -56,-8 -73,-23 -17,-15 -25,-33 -25,-54 0,-37 17,-68 51,-92z"/>
   <polygon id="16" class="fil2" points="9504,6594 9564,6594 9564,6769 9659,6769 9659,6821 9564,6821 9564,7237 9504,7237 9504,6821 9422,6821 9422,6769 9504,6769 "/>
   <path id="17" class="fil2" d="M10218 6769l0 468 -60 0 0 -80c-26,31 -54,54 -85,69 -32,15 -66,23 -103,23 -66,0 -123,-24 -170,-72 -47,-48 -70,-106 -70,-175 0,-67 23,-125 71,-173 47,-48 104,-72 170,-72 39,0 74,9 105,25 31,16 58,40 82,73l0 -86 60 0zm-242 47c-33,0 -64,8 -93,24 -28,17 -51,40 -67,69 -17,30 -25,62 -25,95 0,33 8,64 25,94 17,30 39,54 68,70 28,17 59,25 92,25 33,0 64,-8 93,-25 30,-16 52,-39 68,-67 16,-28 24,-60 24,-95 0,-54 -18,-100 -53,-136 -36,-36 -80,-54 -132,-54z"/>
   <path id="18" class="fil2" d="M10354 6769l60 0 0 81c21,-30 42,-52 64,-66 31,-18 63,-27 96,-27 23,0 45,5 65,14 21,9 37,21 50,35 13,15 24,36 34,64 20,-37 45,-65 75,-84 30,-19 62,-29 97,-29 32,0 61,9 86,25 25,16 43,39 55,68 12,30 18,73 18,132l0 255 -62 0 0 -255c0,-50 -3,-85 -10,-104 -7,-18 -20,-34 -37,-45 -17,-12 -38,-17 -62,-17 -29,0 -56,8 -80,26 -24,17 -42,40 -53,68 -11,29 -17,77 -17,144l0 183 -60 0 0 -239c0,-57 -3,-95 -11,-115 -7,-21 -19,-37 -36,-49 -18,-12 -39,-18 -63,-18 -28,0 -54,8 -78,25 -24,17 -42,39 -54,68 -11,28 -17,72 -17,130l0 198 -60 0 0 -468z"/>
   <path id="19" class="fil2" d="M11202 6577c14,0 26,4 35,14 10,10 15,22 15,36 0,13 -5,25 -15,35 -9,9 -21,14 -35,14 -13,0 -25,-5 -34,-14 -10,-10 -15,-22 -15,-35 0,-14 5,-26 15,-36 9,-10 21,-14 34,-14zm-30 192l60 0 0 468 -60 0 0 -468z"/>
  </g>
 </g>
</svg>
